<svg xmlns="http://www.w3.org/2000/svg" viewBox="0 0 264.583 66.146">
  <defs/>
  <path fill="#393939" d="M0 0h264.584v66.146H0z"/>
  <path fill="#46ab42" d="M37.028 52.477q0 .916-.318 1.654-.308.73-.916 1.253-.598.514-1.476.794-.87.28-2 .28-.991 0-1.916-.205-.916-.206-1.702-.617v-2.692q.45.215.907.42.458.197.925.356.477.159.944.252.477.094.944.094.477 0 .814-.103.345-.112.551-.3.215-.195.308-.457.103-.271.103-.589 0-.383-.168-.673-.159-.299-.458-.551-.29-.262-.71-.505-.412-.243-.926-.514-.43-.224-.962-.542-.533-.318-1.01-.785-.467-.477-.785-1.14-.318-.673-.318-1.608 0-.916.3-1.636.308-.729.869-1.224.56-.505 1.355-.767.804-.261 1.794-.261.496 0 .963.065.477.066.935.187.467.122.934.3.468.177.963.41l-.934 2.253q-.421-.196-.786-.346-.364-.15-.71-.252-.346-.103-.682-.15-.327-.056-.664-.056-.729 0-1.121.393-.384.383-.384 1.028 0 .346.113.617.121.261.373.495.262.234.664.477.411.243.99.551.702.374 1.29.767.59.383 1.01.86.43.467.664 1.065.233.598.233 1.402zM56.67 48.234l2.467-5.627h3.121l-4.15 8.346v5.319H55.23v-5.225l-4.15-8.44h3.14zM88.75 56.272h-3.673l-5.374-10.338h-.084q.056.72.093 1.43.038.608.056 1.28.028.664.028 1.197v6.43h-2.589V42.608h3.655l5.365 10.234h.056q-.028-.71-.066-1.402-.009-.299-.028-.607l-.018-.626-.019-.608v-6.991h2.598zM116 49.308q0 1.73-.477 3.038-.468 1.3-1.365 2.178-.888.869-2.187 1.308-1.29.44-2.944.44h-3.599V42.607h4q1.505 0 2.711.43 1.215.43 2.075 1.28.86.842 1.318 2.094.467 1.252.467 2.897zm-2.935.075q0-1.14-.234-1.963-.224-.831-.664-1.373-.43-.543-1.065-.804-.626-.262-1.44-.262h-1.336v8.898h1.065q1.832 0 2.748-1.122.926-1.121.926-3.374zM134.958 48.673h.785q1.206 0 1.73-.477.523-.486.523-1.42 0-.973-.561-1.384-.561-.411-1.739-.411h-.738zm0 2.355v5.244h-2.897V42.607h3.738q2.626 0 3.879 1.019 1.252 1.01 1.252 3.075 0 .7-.187 1.27-.186.571-.504 1.02-.309.439-.72.775-.402.328-.85.552 1.037 1.664 1.86 2.972.355.56.682 1.094.336.532.598.953.262.42.43.673l.159.262h-3.215l-2.963-5.244zM168.993 49.42q0 1.58-.374 2.88-.365 1.299-1.122 2.224-.757.925-1.916 1.43-1.15.505-2.72.505-1.57 0-2.729-.505-1.15-.505-1.907-1.43-.747-.925-1.121-2.225-.365-1.308-.365-2.897 0-1.589.365-2.879.374-1.299 1.13-2.215.758-.916 1.907-1.411 1.16-.505 2.739-.505 1.57 0 2.72.505 1.15.495 1.897 1.42.757.916 1.122 2.216.374 1.29.374 2.888zm-9.272 0q0 1.075.187 1.935.187.85.57 1.449.392.589.981.907.589.317 1.402.317.832 0 1.42-.317.599-.318.973-.907.383-.598.56-1.449.188-.86.188-1.934 0-1.075-.187-1.926-.178-.86-.561-1.458-.374-.598-.963-.916-.589-.318-1.411-.318-.813 0-1.411.318-.599.318-.991.916-.383.598-.57 1.458-.187.85-.187 1.926zM190.54 56.272l-3-10.72h-.084q.056.859.093 1.663.019.346.028.71.019.365.028.72.019.355.019.682.009.327.009.589v6.356h-2.589V42.607h3.944l2.954 10.45h.056l3.14-10.45h3.945v13.665h-2.702v-6.468-.552l.02-.654.018-.7q.018-.356.028-.693.037-.785.065-1.635h-.075l-3.234 10.702zM223.621 56.272h-7.87V42.607h7.87v2.374h-4.972v3h4.627v2.374h-4.627v3.524h4.972z"/>
  <path fill="#46ab42" d="M15.65 6.048c-2.56 0-4.552.622-5.981 1.867-1.406 1.221-2.11 3.03-2.11 5.428 0 2.397.704 4.218 2.11 5.463 1.429 1.221 3.422 1.832 5.98 1.832h12.378c1.014 0 1.786.242 2.316.726.553.461.83 1.221.83 2.282 0 1.06-.277 1.832-.83 2.316-.53.461-1.302.692-2.316.692l-19.88-.035v4.495h20.467c2.559 0 4.54-.634 5.947-1.902 1.429-1.267 2.143-3.123 2.143-5.566 0-2.467-.714-4.322-2.143-5.566-1.406-1.268-3.388-1.902-5.947-1.902H16.237c-.991 0-1.763-.219-2.316-.657-.554-.46-.83-1.187-.83-2.178 0-.991.276-1.706.83-2.144.553-.46 1.325-.691 2.316-.691l18.843.035V6.048zm70.79 0c-4.587 0-8.09 1.06-10.51 3.18-2.398 2.098-3.596 5.21-3.596 9.335 0 4.15 1.175 7.284 3.526 9.404 2.374 2.098 5.67 3.147 9.889 3.147h15.177v-14.14H85.437v4.494h9.958v5.151h-4.772c-1.643-.073-3.479-.034-5.186-.034-2.443-.116-4.298-.807-5.566-2.075-1.268-1.29-1.902-3.273-1.902-5.947 0-2.812.715-4.852 2.144-6.12 1.452-1.267 3.688-1.9 6.707-1.9h12.758v-.565l-8.295-3.93zm-44.955.173v24.72H68.59v-4.495H47.017v-5.773h19.568v-4.495H47.017v-5.463H68.59V6.221zm65.604 7.317v17.403h5.532v-8.885h12.442l-9.485-4.495h-2.957V16.16zm27.608 13.083l-1.945 4.32h6.015l.888-1.97z"/>
  <path fill="#46ab42" d="M96.21 8.383l8.296 3.93v-3.93zm15.808.173v7.318l5.532 2.621V13.05h20.882V8.556zm36.795 0l-9.187 20.4 4.957 2.35 1.464-3.25h14.072l2.35 5.22h6.016l-11.132-24.72zm23.07 0v15.87c0 2.028.31 3.71.933 5.047.622 1.337 1.66 2.34 3.112 3.008 1.452.645 3.434.968 5.946.968h8.54c2.512 0 4.495-.323 5.947-.968 1.452-.669 2.489-1.67 3.111-3.008.623-1.337.934-3.02.934-5.048V8.556h-5.532v15.87c0 1.751-.415 2.95-1.245 3.595-.807.622-2.19.933-4.148.933h-6.673c-1.96 0-3.354-.31-4.184-.933-.806-.645-1.21-1.844-1.21-3.596V8.556zm34.686 0v24.72h23.614v-4.495h-18.082V8.556zm20.096 0v12.516h5.601V13.05h6.154v20.226h5.532V13.05h7.537v8.022h5.6V8.556zm-73.807 4.322h.45l4.805 10.683h-10.06zm-32.352 7.018l9.485 4.495h5.744v-4.495z"/>
  <path stroke="#46ab42" stroke-width=".794" d="M144.583 31.306L98.055 9.256"/>
  <path fill="#46ab42" d="M238.347 54.032h13.702v2.287h-13.702z">
    <animate attributeName="fill" begin="0s" calcMode="discrete" dur="1s" repeatCount="indefinite" values="#46ab42;transparent"/>
  </path>
</svg>
